<svg id="Layer_1" data-name="Layer 1" xmlns="http://www.w3.org/2000/svg" viewBox="0 0 175.06 177.04"><defs><style>.cls-1,.cls-2,.cls-4{fill:none;}.cls-1,.cls-2{stroke:#000;}.cls-1{stroke-width:18px;}.cls-2,.cls-4{stroke-width:23px;}.cls-3{fill:#2bdd00;}.cls-4{stroke:#2bdd00;}</style></defs><title>FOSS_February_logo</title><path class="cls-1" d="M0,0" transform="translate(-4.46 -6.54)"/><path class="cls-1" d="M109,38" transform="translate(-4.46 -6.54)"/><path class="cls-1" d="M73,129" transform="translate(-4.46 -6.54)"/><path d="M50.52,51.42A12.09,12.09,0,1,0,61.83,67.77l21.53,8.65A33.89,33.89,0,0,0,85.83,63c0-7.42-2.24-11.55-2.24-11.55L61.92,59.52A12.09,12.09,0,0,0,50.52,51.42Z" transform="translate(-4.46 -6.54)"/><polyline class="cls-2" points="90.77 11.5 11.5 11.5 11.5 89.8"/><path class="cls-3" d="M134.81,138.66A12.09,12.09,0,1,0,146.12,155l21.53,8.65a33.87,33.87,0,0,0,2.47-13.45c0-7.42-2.24-11.55-2.24-11.55l-21.67,8.09A12.09,12.09,0,0,0,134.81,138.66Z" transform="translate(-4.46 -6.54)"/><polyline class="cls-4" points="175.06 98.73 95.79 98.73 95.79 177.03"/></svg>