<?xml version="1.0" encoding="utf-8"?>
<!-- Generator: Adobe Illustrator 19.2.1, SVG Export Plug-In . SVG Version: 6.00 Build 0)  -->
<svg version="1.1" id="Layer_1" xmlns="http://www.w3.org/2000/svg" xmlns:xlink="http://www.w3.org/1999/xlink" x="0px" y="0px"
	 viewBox="0 0 174.8 174.6" style="enable-background:new 0 0 174.8 174.6;" xml:space="preserve">
<style type="text/css">
	.st0{fill:#FFFFFF;stroke:#2BDD00;stroke-width:9;}
	.st1{fill:none;}
	.st2{fill:#2BDD00;}
	.st3{fill:#FFFFFF;}
</style>
<rect x="4.6" y="4.5" class="st0" width="165.6" height="165.6"/>
<path class="st1" d="M65.8,57.2"/>
<g>
	<path d="M19.2,57.4c0.1,0,0.3,0,0.5-0.1c0.2,0,0.3,0,0.5,0s0.3,0,0.5,0s0.3,0,0.5,0.1v12.9c-0.1,0-0.3,0-0.4,0.1
		c-0.1,0-0.3,0-0.5,0c-0.2,0-0.3,0-0.5,0c-0.2,0-0.3,0-0.4-0.1V57.4z"/>
	<path d="M36.2,68.5c0.3,0.5,0.4,1,0.5,1.5c-0.5,0.2-1,0.4-1.5,0.5s-1.1,0.1-1.7,0.1c-0.9,0-1.8-0.2-2.5-0.5
		c-0.8-0.3-1.4-0.7-1.9-1.3c-0.5-0.6-0.9-1.3-1.2-2.1c-0.3-0.8-0.4-1.7-0.4-2.8c0-1,0.1-2,0.4-2.8c0.3-0.8,0.7-1.5,1.2-2.1
		c0.5-0.6,1.1-1,1.9-1.4c0.7-0.3,1.6-0.5,2.5-0.5c0.7,0,1.3,0,1.8,0.1c0.5,0.1,0.9,0.2,1.3,0.3c0,0.3-0.1,0.5-0.2,0.8
		c-0.1,0.2-0.2,0.5-0.3,0.7c-0.2-0.1-0.4-0.1-0.5-0.2c-0.2,0-0.3-0.1-0.5-0.1c-0.2,0-0.4-0.1-0.6-0.1c-0.2,0-0.5,0-0.8,0
		c-1.3,0-2.3,0.4-3.1,1.3c-0.7,0.9-1.1,2.2-1.1,3.8c0,0.9,0.1,1.6,0.3,2.2s0.5,1.1,0.9,1.5c0.4,0.4,0.8,0.7,1.3,0.9
		c0.5,0.2,1.1,0.3,1.8,0.3c0.5,0,1,0,1.4-0.1C35.4,68.8,35.8,68.6,36.2,68.5z"/>
	<path d="M38.8,57.4h7.1c0,0.2,0.1,0.5,0.1,0.8c0,0.1,0,0.3,0,0.4c0,0.1,0,0.3,0,0.4h-5.3v3.7h4.2c0,0.1,0,0.2,0.1,0.4
		c0,0.1,0,0.3,0,0.4s0,0.3,0,0.4c0,0.1,0,0.3-0.1,0.4h-4.2v4.4H46c0,0.2,0.1,0.5,0.1,0.8c0,0.1,0,0.3,0,0.4c0,0.1,0,0.3,0,0.4h-7.3
		V57.4z"/>
	<path d="M48.2,57.4c0.1,0,0.3,0,0.4-0.1s0.3,0,0.5,0c0.2,0,0.3,0,0.5,0c0.2,0,0.3,0,0.5,0.1v11.3h5.1c0,0.1,0,0.3,0,0.4
		c0,0.1,0,0.3,0,0.4c0,0.3,0,0.6-0.1,0.8h-6.9V57.4z"/>
	<path d="M56.8,57.4h7.1c0,0.2,0.1,0.5,0.1,0.8c0,0.1,0,0.3,0,0.4c0,0.1,0,0.3,0,0.4h-5.3v3.7h4.2c0,0.1,0,0.2,0.1,0.4
		c0,0.1,0,0.3,0,0.4s0,0.3,0,0.4c0,0.1,0,0.3-0.1,0.4h-4.2v4.4h5.4c0,0.2,0.1,0.5,0.1,0.8c0,0.1,0,0.3,0,0.4c0,0.1,0,0.3,0,0.4h-7.3
		V57.4z"/>
	<path d="M66.2,57.4c0.3-0.1,0.7-0.1,1.3-0.1s1.1-0.1,1.6-0.1c0.7,0,1.3,0.1,1.9,0.2c0.6,0.1,1,0.3,1.4,0.6c0.4,0.3,0.7,0.6,0.9,1
		s0.3,0.9,0.3,1.6c0,0.4-0.1,0.7-0.2,1c-0.1,0.3-0.3,0.6-0.5,0.8c-0.2,0.2-0.4,0.4-0.7,0.6s-0.5,0.3-0.8,0.4c0.3,0,0.7,0.1,1,0.3
		c0.3,0.1,0.7,0.3,0.9,0.6s0.5,0.6,0.7,1s0.3,0.9,0.3,1.5c0,0.7-0.1,1.3-0.4,1.8c-0.3,0.5-0.7,0.9-1.1,1.2c-0.5,0.3-1,0.5-1.7,0.6
		c-0.6,0.1-1.3,0.2-2.1,0.2c-0.5,0-1,0-1.5-0.1c-0.5,0-1-0.1-1.5-0.2V57.4z M69.3,62.8c0.8,0,1.4-0.2,1.9-0.5
		c0.4-0.4,0.6-0.9,0.6-1.6c0-0.7-0.2-1.2-0.7-1.5s-1.1-0.5-1.9-0.5c-0.2,0-0.5,0-0.7,0c-0.2,0-0.4,0-0.6,0.1v4.1H69.3z M68,68.9
		c0.2,0,0.4,0,0.6,0.1c0.3,0,0.5,0,0.8,0c0.4,0,0.8,0,1.2-0.1s0.7-0.2,1-0.4s0.5-0.4,0.7-0.7c0.2-0.3,0.3-0.7,0.3-1.1
		c0-0.4-0.1-0.8-0.2-1.1c-0.2-0.3-0.4-0.6-0.6-0.7c-0.3-0.2-0.6-0.3-1-0.4s-0.8-0.1-1.2-0.1H68V68.9z"/>
	<path d="M76.7,57.4c0.3,0,0.5,0,0.7-0.1c0.2,0,0.4,0,0.6-0.1c0.2,0,0.4,0,0.7,0c0.2,0,0.5,0,0.8,0c0.6,0,1.2,0.1,1.8,0.2
		c0.6,0.1,1.1,0.3,1.6,0.6c0.5,0.3,0.8,0.7,1.1,1.2s0.4,1.2,0.4,1.9c0,0.5-0.1,0.9-0.2,1.3c-0.2,0.4-0.4,0.7-0.6,1
		c-0.2,0.3-0.5,0.6-0.8,0.8c-0.3,0.2-0.6,0.4-0.9,0.5l-0.2,0.1l3.8,5.5c-0.3,0-0.7,0.1-1.1,0.1c-0.3,0-0.6,0-1-0.1l-4.1-6v-0.1
		l0.1,0c0.3-0.1,0.7-0.2,1-0.3c0.4-0.1,0.7-0.3,1-0.6c0.3-0.2,0.6-0.5,0.8-0.8c0.2-0.3,0.3-0.7,0.3-1.2c0-0.9-0.3-1.5-0.8-1.9
		c-0.5-0.4-1.2-0.6-2.1-0.6c-0.2,0-0.4,0-0.6,0s-0.4,0-0.6,0.1v11.5c-0.1,0-0.3,0-0.4,0c-0.2,0-0.3,0-0.5,0c-0.1,0-0.3,0-0.5,0
		s-0.3,0-0.5,0V57.4z"/>
	<path d="M93.5,67.4h-4.9l-0.9,3c-0.2,0-0.3,0-0.5,0.1c-0.2,0-0.3,0-0.5,0c-0.2,0-0.3,0-0.5,0c-0.2,0-0.3,0-0.4-0.1L90,57.4
		c0.2,0,0.3,0,0.5-0.1s0.4,0,0.6,0c0.2,0,0.3,0,0.5,0s0.4,0,0.5,0.1l4.2,12.9c-0.1,0-0.3,0-0.5,0.1c-0.2,0-0.4,0-0.5,0
		c-0.2,0-0.3,0-0.5,0c-0.2,0-0.3,0-0.5-0.1L93.5,67.4z M89,65.8H93l-2-6.6L89,65.8z"/>
	<path d="M99,59h-3.4c0-0.1,0-0.3-0.1-0.4c0-0.1,0-0.3,0-0.4c0-0.1,0-0.3,0-0.4c0-0.1,0-0.3,0.1-0.4h8.6c0,0.1,0,0.2,0.1,0.4
		c0,0.1,0,0.3,0,0.4s0,0.3,0,0.4c0,0.2,0,0.3-0.1,0.4h-3.4v11.3c-0.3,0-0.6,0.1-0.9,0.1c-0.3,0-0.6,0-0.9-0.1V59z"/>
	<path d="M106,57.4h7.1c0,0.2,0.1,0.5,0.1,0.8c0,0.1,0,0.3,0,0.4c0,0.1,0,0.3,0,0.4h-5.3v3.7h4.2c0,0.1,0,0.2,0.1,0.4
		c0,0.1,0,0.3,0,0.4s0,0.3,0,0.4c0,0.1,0,0.3-0.1,0.4h-4.2v4.4h5.4c0,0.2,0.1,0.5,0.1,0.8c0,0.1,0,0.3,0,0.4c0,0.1,0,0.3,0,0.4H106
		V57.4z"/>
	<path d="M32.4,85.9h2.8l-0.9,3.4h-2.8l-1,4.1h-3.7l1-4.1h-3.2l-1,4.1H20l1-4.1h-2.8l0.9-3.4h2.8l0.8-3.3h-2.8l0.9-3.4h2.8l1.1-4.5
		h3.7l-1.1,4.5h3.3l1.1-4.5h3.7L34,79.2h2.8l-0.9,3.4h-2.7L32.4,85.9z M26.3,82.6l-0.8,3.3h3.2l0.8-3.3H26.3z"/>
	<path d="M43.2,82.7h8.7v4h-8.7v6.7h-4.6V74.7H53v4h-9.8V82.7z"/>
	<path d="M74,84.1c0,5.4-4.4,9.7-9.9,9.7c-5.6,0-9.9-4.3-9.9-9.7c0-5.4,4.4-9.8,9.9-9.8C69.6,74.3,74,78.6,74,84.1z M69.4,84.1
		c0-3.2-2.3-5.6-5.3-5.6c-3,0-5.3,2.4-5.3,5.6c0,3.2,2.3,5.5,5.3,5.5C67.1,89.6,69.4,87.3,69.4,84.1z"/>
	<path d="M91.2,79.7l-4.5,0.9c-0.3-1.8-1.8-2.6-3.3-2.6c-1.5,0-2.5,0.8-2.5,1.9c0,0.8,0.3,1.3,1.5,1.6l3.9,0.9
		c3.2,0.7,5.1,2.5,5.1,5.4c0,4-3.5,6-7.7,6c-4.2,0-7.6-2-8.1-5.6l4.7-0.9c0.5,1.9,1.8,2.8,3.7,2.8c1.7,0,2.8-0.8,2.8-1.9
		c0-0.8-0.4-1.4-1.7-1.6l-3.9-0.8c-2.7-0.6-5-2-5-5.4c0-3.6,3-5.9,7.4-5.9C87.5,74.3,90.5,76.3,91.2,79.7z"/>
	<path d="M108.3,79.7l-4.5,0.9c-0.3-1.8-1.8-2.6-3.3-2.6C99,78,98,78.9,98,79.9c0,0.8,0.3,1.3,1.5,1.6l3.9,0.9
		c3.2,0.7,5.1,2.5,5.1,5.4c0,4-3.5,6-7.7,6c-4.2,0-7.6-2-8.1-5.6l4.7-0.9c0.5,1.9,1.8,2.8,3.7,2.8c1.7,0,2.8-0.8,2.8-1.9
		c0-0.8-0.4-1.4-1.7-1.6l-3.9-0.8c-2.7-0.6-5-2-5-5.4c0-3.6,3-5.9,7.4-5.9C104.6,74.3,107.6,76.3,108.3,79.7z"/>
	<path d="M115.4,82.7h8.7v4h-8.7v6.7h-4.6V74.7h14.4v4h-9.8V82.7z"/>
	<path d="M140.3,87.5h-10.2c0.4,1.7,1.5,2.7,3,2.7c1,0,2.2-0.2,3-1.6l3.9,0.8c-1.2,2.9-3.7,4.4-6.9,4.4c-4,0-7.4-3-7.4-7.4
		c0-4.4,3.3-7.4,7.4-7.4c3.9,0,7.1,2.8,7.2,7.4V87.5z M130.1,84.8h5.8c-0.4-1.5-1.5-2.2-2.8-2.2C131.8,82.6,130.6,83.4,130.1,84.8z"
		/>
	<path d="M157.8,86.4c0,4.4-3.1,7.4-6.8,7.4c-1.8,0-3.3-0.6-4.3-1.5v1.1h-4.4v-20h4.4v7.2c1.1-1,2.5-1.5,4.3-1.5
		C154.7,79,157.8,82,157.8,86.4z M153.4,86.4c0-2.1-1.4-3.6-3.4-3.6c-1.8,0-3.4,1.5-3.4,3.6c0,2.2,1.6,3.6,3.4,3.6
		C152,90,153.4,88.6,153.4,86.4z"/>
</g>
<path class="st2" d="M92.8,137.4c0-3.2-2.6-5.7-5.7-5.7c-3.2,0-5.7,2.6-5.7,5.7c0,2.4,1.5,4.5,3.7,5.4l-4.1,10.2
	c0,0,2.5,1.2,6.4,1.2c3.5,0,5.5-1.1,5.5-1.1l-3.8-10.3C91.2,142,92.8,139.9,92.8,137.4z"/>
<path class="st2" d="M108.9,137.8c0-3.2-2.6-5.7-5.7-5.7c-3.2,0-5.7,2.6-5.7,5.7c0,2.4,1.5,4.5,3.7,5.4l-4.1,10.2
	c0,0,2.5,1.2,6.4,1.2c3.5,0,5.5-1.1,5.5-1.1l-3.8-10.3C107.3,142.5,108.9,140.3,108.9,137.8z"/>
<path class="st2" d="M124.4,137.8c0-3.2-2.6-5.7-5.7-5.7c-3.2,0-5.7,2.6-5.7,5.7c0,2.4,1.5,4.5,3.7,5.4l-4.1,10.2
	c0,0,2.5,1.2,6.4,1.2c3.5,0,5.5-1.1,5.5-1.1l-3.8-10.3C122.8,142.5,124.4,140.3,124.4,137.8z"/>
<path class="st2" d="M140.8,137.8c0-3.2-2.6-5.7-5.7-5.7c-3.2,0-5.7,2.6-5.7,5.7c0,2.4,1.5,4.5,3.7,5.4l-4.1,10.2
	c0,0,2.5,1.2,6.4,1.2c3.5,0,5.5-1.1,5.5-1.1l-3.8-10.3C139.2,142.5,140.8,140.3,140.8,137.8z"/>
<path class="st2" d="M155.6,138c0-3.2-2.6-5.7-5.7-5.7c-3.2,0-5.7,2.6-5.7,5.7c0,2.4,1.5,4.5,3.7,5.4l-4.1,10.2c0,0,2.5,1.2,6.4,1.2
	c3.5,0,5.5-1.1,5.5-1.1l-3.8-10.3C154,142.6,155.6,140.5,155.6,138z"/>
<path class="st2" d="M30.8,137.8c0-3.2-2.6-5.7-5.7-5.7c-3.2,0-5.7,2.6-5.7,5.7c0,2.4,1.5,4.5,3.7,5.4L19,153.4c0,0,2.5,1.2,6.4,1.2
	c3.5,0,5.5-1.1,5.5-1.1L27,143.2C29.2,142.5,30.8,140.3,30.8,137.8z"/>
<path class="st2" d="M46.3,137.8c0-3.2-2.6-5.7-5.7-5.7c-3.2,0-5.7,2.6-5.7,5.7c0,2.4,1.5,4.5,3.7,5.4l-4.1,10.2
	c0,0,2.5,1.2,6.4,1.2c3.5,0,5.5-1.1,5.5-1.1l-3.8-10.3C44.7,142.5,46.3,140.3,46.3,137.8z"/>
<path class="st2" d="M62.7,137.8c0-3.2-2.6-5.7-5.7-5.7c-3.2,0-5.7,2.6-5.7,5.7c0,2.4,1.5,4.5,3.7,5.4l-4.1,10.2
	c0,0,2.5,1.2,6.4,1.2c3.5,0,5.5-1.1,5.5-1.1l-3.8-10.3C61.1,142.5,62.7,140.3,62.7,137.8z"/>
<path class="st2" d="M77.5,138c0-3.2-2.6-5.7-5.7-5.7c-3.2,0-5.7,2.6-5.7,5.7c0,2.4,1.5,4.5,3.7,5.4l-4.1,10.2c0,0,2.5,1.2,6.4,1.2
	c3.5,0,5.5-1.1,5.5-1.1l-3.8-10.3C75.9,142.6,77.5,140.5,77.5,138z"/>
<rect y="101.8" width="174.8" height="20.7"/>
<path class="st2" d="M92.4,27.7c0-3.2-2.6-5.7-5.7-5.7c-3.2,0-5.7,2.6-5.7,5.7c0,2.4,1.5,4.5,3.7,5.4l-4.1,10.2c0,0,2.5,1.2,6.4,1.2
	c3.5,0,5.5-1.1,5.5-1.1l-3.8-10.3C90.8,32.3,92.4,30.2,92.4,27.7z"/>
<path class="st2" d="M108.5,28.1c0-3.2-2.6-5.7-5.7-5.7c-3.2,0-5.7,2.6-5.7,5.7c0,2.4,1.5,4.5,3.7,5.4l-4.1,10.2
	c0,0,2.5,1.2,6.4,1.2c3.5,0,5.5-1.1,5.5-1.1l-3.8-10.3C106.9,32.8,108.5,30.6,108.5,28.1z"/>
<path class="st2" d="M124,28.1c0-3.2-2.6-5.7-5.7-5.7c-3.2,0-5.7,2.6-5.7,5.7c0,2.4,1.5,4.5,3.7,5.4l-4.1,10.2c0,0,2.5,1.2,6.4,1.2
	c3.5,0,5.5-1.1,5.5-1.1l-3.8-10.3C122.4,32.8,124,30.6,124,28.1z"/>
<path class="st2" d="M140.4,28.1c0-3.2-2.6-5.7-5.7-5.7c-3.2,0-5.7,2.6-5.7,5.7c0,2.4,1.5,4.5,3.7,5.4l-4.1,10.2
	c0,0,2.5,1.2,6.4,1.2c3.5,0,5.5-1.1,5.5-1.1l-3.8-10.3C138.8,32.8,140.4,30.6,140.4,28.1z"/>
<path class="st2" d="M155.2,28.3c0-3.2-2.6-5.7-5.7-5.7c-3.2,0-5.7,2.6-5.7,5.7c0,2.4,1.5,4.5,3.7,5.4l-4.1,10.2
	c0,0,2.5,1.2,6.4,1.2c3.5,0,5.5-1.1,5.5-1.1l-3.8-10.3C153.6,32.9,155.2,30.8,155.2,28.3z"/>
<path class="st2" d="M30.4,28.1c0-3.2-2.6-5.7-5.7-5.7c-3.2,0-5.7,2.6-5.7,5.7c0,2.4,1.5,4.5,3.7,5.4l-4.1,10.2c0,0,2.5,1.2,6.4,1.2
	c3.5,0,5.5-1.1,5.5-1.1l-3.8-10.3C28.8,32.8,30.4,30.6,30.4,28.1z"/>
<path class="st2" d="M45.9,28.1c0-3.2-2.6-5.7-5.7-5.7c-3.2,0-5.7,2.6-5.7,5.7c0,2.4,1.5,4.5,3.7,5.4l-4.1,10.2c0,0,2.5,1.2,6.4,1.2
	c3.5,0,5.5-1.1,5.5-1.1l-3.8-10.3C44.3,32.8,45.9,30.6,45.9,28.1z"/>
<path class="st2" d="M62.3,28.1c0-3.2-2.6-5.7-5.7-5.7c-3.2,0-5.7,2.6-5.7,5.7c0,2.4,1.5,4.5,3.7,5.4l-4.1,10.2c0,0,2.5,1.2,6.4,1.2
	c3.5,0,5.5-1.1,5.5-1.1l-3.8-10.3C60.7,32.8,62.3,30.6,62.3,28.1z"/>
<path class="st2" d="M77.1,28.3c0-3.2-2.6-5.7-5.7-5.7c-3.2,0-5.7,2.6-5.7,5.7c0,2.4,1.5,4.5,3.7,5.4l-4.1,10.2c0,0,2.5,1.2,6.4,1.2
	c3.5,0,5.5-1.1,5.5-1.1l-3.8-10.3C75.5,32.9,77.1,30.8,77.1,28.3z"/>
<g>
	<path class="st3" d="M18.3,110.7c0.2,0,0.3,0,0.5,0c0.2,0,0.3,0,0.5,0v3.9h1.6c0,0.1,0,0.1,0,0.2c0,0.1,0,0.1,0,0.2
		c0,0.1,0,0.1,0,0.2c0,0.1,0,0.1,0,0.2h-2.6V110.7z"/>
	<path class="st3" d="M21.6,110.7h2.7c0,0.1,0,0.3,0,0.4c0,0.1,0,0.3,0,0.4h-1.7v1h1.4c0,0.1,0,0.3,0,0.4c0,0.1,0,0.3,0,0.4h-1.4
		v1.2h1.8c0,0.1,0,0.3,0,0.4c0,0.1,0,0.3,0,0.4h-2.7V110.7z"/>
	<path class="st3" d="M26.2,110.7c0.1,0,0.2,0,0.3,0c0.1,0,0.2,0,0.3,0c0.1,0,0.2,0,0.3,0c0.1,0,0.2,0,0.3,0l1.5,4.7
		c-0.2,0-0.4,0-0.5,0c-0.2,0-0.3,0-0.5,0l-0.3-0.9h-1.6l-0.3,0.9c-0.2,0-0.3,0-0.5,0c-0.2,0-0.3,0-0.5,0L26.2,110.7z M27.2,113.7
		l-0.5-2l-0.6,2H27.2z"/>
	<path class="st3" d="M29.3,110.7c0.2,0,0.4,0,0.5-0.1c0.2,0,0.4,0,0.6,0c0.2,0,0.5,0,0.7,0.1c0.2,0,0.4,0.1,0.6,0.2
		c0.2,0.1,0.3,0.3,0.5,0.5c0.1,0.2,0.2,0.4,0.2,0.7c0,0.2,0,0.3-0.1,0.5c0,0.1-0.1,0.3-0.2,0.4c-0.1,0.1-0.1,0.2-0.2,0.3
		c-0.1,0.1-0.2,0.1-0.2,0.2l-0.1,0.1l1.1,2c-0.1,0-0.2,0-0.3,0c-0.1,0-0.2,0-0.3,0c-0.2,0-0.3,0-0.5,0l-1.2-2.2l0.2-0.1
		c0.1,0,0.1-0.1,0.2-0.1s0.2-0.1,0.3-0.2c0.1-0.1,0.1-0.2,0.2-0.3c0.1-0.1,0.1-0.2,0.1-0.4c0-0.3-0.1-0.5-0.2-0.6
		c-0.2-0.1-0.4-0.2-0.6-0.2c-0.1,0-0.2,0-0.3,0v4c-0.1,0-0.2,0-0.2,0c-0.1,0-0.2,0-0.2,0s-0.2,0-0.2,0c-0.1,0-0.2,0-0.3,0V110.7z"/>
	<path class="st3" d="M33.2,110.7c0.1,0,0.3,0,0.4,0c0.1,0,0.3,0,0.4,0l1.8,3v-3c0.2,0,0.3,0,0.5,0c0.1,0,0.3,0,0.4,0v4.7
		c-0.1,0-0.3,0-0.4,0c-0.1,0-0.3,0-0.4,0l-1.8-3v3c-0.1,0-0.3,0-0.4,0s-0.3,0-0.4,0V110.7z"/>
	<path class="st3" d="M39.2,110.7c0.2,0,0.3,0,0.5,0c0.2,0,0.3,0,0.5,0l1.1,2.7l1.1-2.7c0.1,0,0.3,0,0.5,0c0.2,0,0.3,0,0.5,0
		l0.2,4.7c-0.2,0-0.3,0-0.5,0c-0.1,0-0.3,0-0.4,0l-0.1-3.2l-1,2.2c-0.1,0-0.1,0-0.2,0c-0.1,0-0.1,0-0.2,0c-0.1,0-0.1,0-0.2,0
		c-0.1,0-0.1,0-0.2,0l-0.9-2.3l-0.1,3.2c-0.1,0-0.3,0-0.4,0c-0.1,0-0.3,0-0.4,0L39.2,110.7z"/>
	<path class="st3" d="M46.3,115.5c-0.4,0-0.7-0.1-0.9-0.2c-0.3-0.1-0.5-0.3-0.6-0.5c-0.2-0.2-0.3-0.5-0.4-0.8
		c-0.1-0.3-0.1-0.6-0.1-1s0-0.7,0.1-1c0.1-0.3,0.2-0.6,0.4-0.8s0.4-0.4,0.6-0.5c0.3-0.1,0.6-0.2,0.9-0.2c0.4,0,0.7,0.1,0.9,0.2
		c0.3,0.1,0.5,0.3,0.6,0.5s0.3,0.5,0.4,0.8c0.1,0.3,0.1,0.6,0.1,1s0,0.7-0.1,1c-0.1,0.3-0.2,0.6-0.4,0.8c-0.2,0.2-0.4,0.4-0.6,0.5
		C47,115.4,46.7,115.5,46.3,115.5z M46.3,114.7c0.7,0,1-0.5,1-1.6c0-0.5-0.1-0.9-0.2-1.2s-0.4-0.4-0.8-0.4c-0.7,0-1,0.5-1,1.6
		S45.7,114.7,46.3,114.7z"/>
	<path class="st3" d="M49.2,110.7c0.2,0,0.4,0,0.5-0.1c0.2,0,0.4,0,0.6,0c0.2,0,0.5,0,0.7,0.1c0.2,0,0.4,0.1,0.6,0.2
		c0.2,0.1,0.3,0.3,0.5,0.5c0.1,0.2,0.2,0.4,0.2,0.7c0,0.2,0,0.3-0.1,0.5c0,0.1-0.1,0.3-0.2,0.4c-0.1,0.1-0.1,0.2-0.2,0.3
		c-0.1,0.1-0.2,0.1-0.2,0.2l-0.1,0.1l1.1,2c-0.1,0-0.2,0-0.3,0c-0.1,0-0.2,0-0.3,0c-0.2,0-0.3,0-0.5,0l-1.2-2.2l0.2-0.1
		c0.1,0,0.1-0.1,0.2-0.1s0.2-0.1,0.3-0.2c0.1-0.1,0.1-0.2,0.2-0.3c0.1-0.1,0.1-0.2,0.1-0.4c0-0.3-0.1-0.5-0.2-0.6
		c-0.2-0.1-0.4-0.2-0.6-0.2c-0.1,0-0.2,0-0.3,0v4c-0.1,0-0.2,0-0.2,0c-0.1,0-0.2,0-0.2,0s-0.2,0-0.2,0c-0.1,0-0.2,0-0.3,0V110.7z"/>
	<path class="st3" d="M53.2,110.7h2.7c0,0.1,0,0.3,0,0.4c0,0.1,0,0.3,0,0.4h-1.7v1h1.4c0,0.1,0,0.3,0,0.4c0,0.1,0,0.3,0,0.4h-1.4
		v1.2h1.8c0,0.1,0,0.3,0,0.4c0,0.1,0,0.3,0,0.4h-2.7V110.7z"/>
	<path class="st3" d="M68.2,111.5c0,0.4-0.1,0.8-0.2,1.2c-0.1,0.4-0.3,0.8-0.5,1.1c-0.2,0.3-0.5,0.6-0.9,0.8
		c-0.3,0.2-0.7,0.3-1.1,0.3c-0.5,0-0.8-0.1-1.1-0.3c-0.2,0.1-0.4,0.2-0.6,0.3c-0.2,0.1-0.5,0.1-0.8,0.1c-0.5,0-0.8-0.1-1.1-0.4
		c-0.3-0.3-0.4-0.7-0.4-1.2c0-0.5,0.1-0.9,0.2-1.3c0.2-0.4,0.4-0.7,0.6-1c0.3-0.3,0.6-0.5,0.9-0.7c0.3-0.2,0.7-0.2,1.1-0.2
		c0.3,0,0.5,0,0.8,0.1s0.5,0.1,0.7,0.2L65,114c0.1,0.1,0.1,0.1,0.2,0.1s0.2,0,0.3,0c0.3,0,0.5-0.1,0.7-0.2c0.2-0.2,0.4-0.4,0.5-0.6
		c0.1-0.3,0.3-0.5,0.3-0.9c0.1-0.3,0.1-0.6,0.1-0.9c0-0.8-0.2-1.5-0.8-1.9c-0.5-0.4-1.2-0.7-2.1-0.7c-0.7,0-1.3,0.1-1.9,0.4
		s-1,0.6-1.4,1c-0.4,0.4-0.7,0.9-0.8,1.4c-0.2,0.5-0.3,1.1-0.3,1.6c0,0.5,0.1,1,0.2,1.3c0.2,0.4,0.4,0.7,0.6,0.9s0.6,0.4,0.9,0.5
		s0.7,0.2,1.1,0.2c0.3,0,0.6,0,0.9-0.1c0.3,0,0.5-0.1,0.8-0.2c0,0.1,0.1,0.2,0.1,0.3c0,0.1,0.1,0.2,0.1,0.4
		c-0.5,0.2-1.1,0.3-1.9,0.3c-0.5,0-1-0.1-1.5-0.2c-0.5-0.1-0.9-0.4-1.2-0.7c-0.3-0.3-0.6-0.7-0.8-1.1s-0.3-1-0.3-1.6
		c0-0.6,0.1-1.2,0.3-1.8c0.2-0.6,0.5-1.2,1-1.7c0.4-0.5,1-0.9,1.7-1.2c0.7-0.3,1.5-0.5,2.4-0.5c0.5,0,1,0.1,1.4,0.2
		c0.4,0.1,0.8,0.3,1.2,0.6c0.3,0.3,0.6,0.6,0.8,1.1C68.1,110.4,68.2,110.9,68.2,111.5z M64.7,111.1c-0.1,0-0.2,0-0.2,0s-0.2,0-0.2,0
		c-0.3,0-0.5,0.1-0.7,0.2c-0.2,0.1-0.4,0.3-0.6,0.5c-0.2,0.2-0.3,0.4-0.4,0.7c-0.1,0.3-0.1,0.5-0.1,0.8c0,0.3,0.1,0.6,0.2,0.8
		c0.1,0.2,0.4,0.2,0.7,0.2c0.2,0,0.3,0,0.4,0s0.3-0.1,0.4-0.2L64.7,111.1z"/>
	<path class="st3" d="M71.3,110.3c0.1,0,0.2,0,0.3,0s0.2,0,0.2,0c0.1,0,0.2,0,0.3,0s0.2,0,0.3,0l1,4.2l1.1-4.2c0.1,0,0.2,0,0.2,0
		s0.2,0,0.3,0c0.1,0,0.2,0,0.3,0c0.1,0,0.2,0,0.2,0l1.1,4.1l1-4.1c0.1,0,0.1,0,0.2,0s0.2,0,0.2,0c0.1,0,0.2,0,0.2,0s0.2,0,0.3,0
		l-1.5,5.1c-0.1,0-0.2,0-0.3,0c-0.1,0-0.2,0-0.2,0s-0.2,0-0.2,0c-0.1,0-0.2,0-0.3,0l-1.1-3.9l-1.2,3.9c-0.1,0-0.2,0-0.3,0
		c-0.1,0-0.2,0-0.2,0c-0.1,0-0.2,0-0.2,0c-0.1,0-0.2,0-0.2,0L71.3,110.3z"/>
	<path class="st3" d="M79.1,110.3c0.1,0,0.2,0,0.3,0s0.2,0,0.2,0c0.1,0,0.2,0,0.3,0s0.2,0,0.3,0l1,4.2l1.1-4.2c0.1,0,0.2,0,0.2,0
		s0.2,0,0.3,0c0.1,0,0.2,0,0.3,0c0.1,0,0.2,0,0.2,0l1.1,4.1l1-4.1c0.1,0,0.1,0,0.2,0s0.2,0,0.2,0c0.1,0,0.2,0,0.2,0s0.2,0,0.3,0
		l-1.5,5.1c-0.1,0-0.2,0-0.3,0c-0.1,0-0.2,0-0.2,0s-0.2,0-0.2,0c-0.1,0-0.2,0-0.3,0l-1.1-3.9l-1.2,3.9c-0.1,0-0.2,0-0.3,0
		c-0.1,0-0.2,0-0.2,0c-0.1,0-0.2,0-0.2,0c-0.1,0-0.2,0-0.2,0L79.1,110.3z"/>
	<path class="st3" d="M86.8,110.3c0.1,0,0.2,0,0.3,0s0.2,0,0.2,0c0.1,0,0.2,0,0.3,0s0.2,0,0.3,0l1,4.2l1.1-4.2c0.1,0,0.2,0,0.2,0
		s0.2,0,0.3,0c0.1,0,0.2,0,0.3,0c0.1,0,0.2,0,0.2,0l1.1,4.1l1-4.1c0.1,0,0.1,0,0.2,0s0.2,0,0.2,0c0.1,0,0.2,0,0.2,0s0.2,0,0.3,0
		l-1.5,5.1c-0.1,0-0.2,0-0.3,0c-0.1,0-0.2,0-0.2,0s-0.2,0-0.2,0c-0.1,0-0.2,0-0.3,0l-1.1-3.9l-1.2,3.9c-0.1,0-0.2,0-0.3,0
		c-0.1,0-0.2,0-0.2,0c-0.1,0-0.2,0-0.2,0c-0.1,0-0.2,0-0.2,0L86.8,110.3z"/>
	<path class="st3" d="M94.6,115.4c0-0.1,0-0.2,0-0.3c0-0.1,0-0.2,0-0.3c0-0.1,0-0.2,0-0.3s0-0.2,0-0.3c0.1,0,0.2,0,0.3,0
		c0.1,0,0.2,0,0.3,0c0.1,0,0.2,0,0.3,0c0.1,0,0.2,0,0.3,0c0,0.1,0,0.2,0,0.3c0,0.1,0,0.2,0,0.3c0,0.1,0,0.2,0,0.3c0,0.1,0,0.2,0,0.3
		c-0.1,0-0.2,0-0.3,0c-0.1,0-0.2,0-0.3,0s-0.2,0-0.3,0C94.8,115.5,94.7,115.4,94.6,115.4z"/>
	<path class="st3" d="M97.2,108.2h3.8c0,0.1,0,0.1,0,0.2c0,0.1,0,0.2,0,0.2c0,0.1,0,0.2,0,0.2c0,0.1,0,0.2,0,0.2h-2.7v2.1h2.3
		c0,0.1,0,0.1,0,0.2c0,0.1,0,0.2,0,0.2s0,0.1,0,0.2c0,0.1,0,0.2,0,0.2h-2.3v3.3c-0.1,0-0.2,0-0.2,0c-0.1,0-0.2,0-0.3,0
		c-0.1,0-0.2,0-0.3,0c-0.1,0-0.2,0-0.2,0V108.2z"/>
	<path class="st3" d="M105,115.6c-0.5,0-1-0.1-1.4-0.3c-0.4-0.2-0.7-0.4-0.9-0.8s-0.4-0.7-0.6-1.2c-0.1-0.5-0.2-1-0.2-1.5
		s0.1-1,0.2-1.5c0.1-0.5,0.3-0.8,0.6-1.2s0.6-0.6,0.9-0.8c0.4-0.2,0.8-0.3,1.4-0.3s1,0.1,1.4,0.3c0.4,0.2,0.7,0.4,0.9,0.8
		s0.4,0.7,0.6,1.2c0.1,0.5,0.2,0.9,0.2,1.5s-0.1,1-0.2,1.5c-0.1,0.5-0.3,0.8-0.6,1.2s-0.6,0.6-0.9,0.8
		C106,115.5,105.6,115.6,105,115.6z M105,114.7c0.3,0,0.6-0.1,0.9-0.2s0.4-0.3,0.6-0.6c0.2-0.2,0.3-0.5,0.4-0.9s0.1-0.7,0.1-1.2
		c0-0.4,0-0.8-0.1-1.2c-0.1-0.3-0.2-0.6-0.4-0.9c-0.2-0.2-0.4-0.4-0.6-0.6s-0.5-0.2-0.9-0.2s-0.6,0.1-0.9,0.2s-0.4,0.3-0.6,0.6
		c-0.2,0.2-0.3,0.5-0.4,0.9c-0.1,0.4-0.1,0.7-0.1,1.2c0,0.4,0,0.8,0.1,1.2s0.2,0.6,0.4,0.9c0.2,0.2,0.4,0.4,0.6,0.6
		S104.7,114.7,105,114.7z"/>
	<path class="st3" d="M109.4,114.3c0.2,0.1,0.5,0.1,0.7,0.2c0.2,0.1,0.5,0.1,0.9,0.1c0.5,0,1-0.1,1.2-0.3c0.3-0.2,0.4-0.5,0.4-0.9
		c0-0.2,0-0.3-0.1-0.5c-0.1-0.1-0.1-0.2-0.3-0.3s-0.3-0.2-0.4-0.3c-0.2-0.1-0.4-0.2-0.6-0.3l-0.6-0.2c-0.2-0.1-0.4-0.2-0.5-0.3
		s-0.3-0.2-0.4-0.4c-0.1-0.1-0.2-0.3-0.3-0.5c-0.1-0.2-0.1-0.4-0.1-0.7c0-0.6,0.2-1.1,0.6-1.4c0.4-0.3,1-0.5,1.7-0.5
		c0.3,0,0.6,0,0.9,0.1c0.3,0.1,0.5,0.1,0.8,0.2c0,0.3-0.1,0.6-0.2,0.8c-0.2-0.1-0.4-0.1-0.6-0.2c-0.2-0.1-0.5-0.1-0.8-0.1
		c-0.4,0-0.7,0.1-1,0.3c-0.2,0.2-0.3,0.4-0.3,0.8c0,0.1,0,0.3,0.1,0.4c0.1,0.1,0.1,0.2,0.2,0.3c0.1,0.1,0.2,0.2,0.3,0.2
		c0.1,0.1,0.3,0.1,0.4,0.2l0.6,0.2c0.3,0.1,0.5,0.2,0.7,0.3c0.2,0.1,0.4,0.3,0.5,0.4s0.3,0.3,0.3,0.6c0.1,0.2,0.1,0.5,0.1,0.8
		c0,0.7-0.2,1.2-0.7,1.6c-0.5,0.4-1.1,0.6-2,0.6c-0.2,0-0.4,0-0.6,0c-0.2,0-0.3,0-0.5-0.1s-0.3-0.1-0.4-0.1c-0.1,0-0.3-0.1-0.4-0.1
		c0-0.1,0-0.3,0.1-0.4S109.3,114.5,109.4,114.3z"/>
	<path class="st3" d="M114.6,114.3c0.2,0.1,0.5,0.1,0.7,0.2c0.2,0.1,0.5,0.1,0.9,0.1c0.5,0,1-0.1,1.2-0.3c0.3-0.2,0.4-0.5,0.4-0.9
		c0-0.2,0-0.3-0.1-0.5c-0.1-0.1-0.1-0.2-0.3-0.3s-0.3-0.2-0.4-0.3c-0.2-0.1-0.4-0.2-0.6-0.3l-0.6-0.2c-0.2-0.1-0.4-0.2-0.5-0.3
		s-0.3-0.2-0.4-0.4c-0.1-0.1-0.2-0.3-0.3-0.5c-0.1-0.2-0.1-0.4-0.1-0.7c0-0.6,0.2-1.1,0.6-1.4c0.4-0.3,1-0.5,1.7-0.5
		c0.3,0,0.6,0,0.9,0.1c0.3,0.1,0.5,0.1,0.8,0.2c0,0.3-0.1,0.6-0.2,0.8c-0.2-0.1-0.4-0.1-0.6-0.2c-0.2-0.1-0.5-0.1-0.8-0.1
		c-0.4,0-0.7,0.1-1,0.3c-0.2,0.2-0.3,0.4-0.3,0.8c0,0.1,0,0.3,0.1,0.4c0.1,0.1,0.1,0.2,0.2,0.3c0.1,0.1,0.2,0.2,0.3,0.2
		c0.1,0.1,0.3,0.1,0.4,0.2l0.6,0.2c0.3,0.1,0.5,0.2,0.7,0.3c0.2,0.1,0.4,0.3,0.5,0.4s0.3,0.3,0.3,0.6c0.1,0.2,0.1,0.5,0.1,0.8
		c0,0.7-0.2,1.2-0.7,1.6c-0.5,0.4-1.1,0.6-2,0.6c-0.2,0-0.4,0-0.6,0c-0.2,0-0.3,0-0.5-0.1s-0.3-0.1-0.4-0.1c-0.1,0-0.3-0.1-0.4-0.1
		c0-0.1,0-0.3,0.1-0.4S114.5,114.5,114.6,114.3z"/>
	<path class="st3" d="M120.2,108.2h3.8c0,0.1,0,0.1,0,0.2c0,0.1,0,0.2,0,0.2c0,0.1,0,0.2,0,0.2c0,0.1,0,0.2,0,0.2h-2.7v2.1h2.3
		c0,0.1,0,0.1,0,0.2c0,0.1,0,0.2,0,0.2s0,0.1,0,0.2c0,0.1,0,0.2,0,0.2h-2.3v3.3c-0.1,0-0.2,0-0.2,0c-0.1,0-0.2,0-0.3,0
		c-0.1,0-0.2,0-0.3,0c-0.1,0-0.2,0-0.2,0V108.2z"/>
	<path class="st3" d="M125.7,113.1c0,0.6,0.2,1,0.4,1.2c0.3,0.3,0.7,0.4,1.2,0.4c0.5,0,0.9-0.1,1.4-0.2c0.1,0.1,0.1,0.2,0.1,0.4
		s0.1,0.3,0.1,0.4c-0.2,0.1-0.5,0.2-0.7,0.2c-0.3,0-0.6,0.1-0.9,0.1c-0.5,0-0.9-0.1-1.2-0.2c-0.3-0.1-0.6-0.3-0.8-0.5
		s-0.4-0.5-0.5-0.8c-0.1-0.3-0.1-0.7-0.1-1.1c0-0.4,0-0.7,0.1-1.1s0.2-0.6,0.4-0.9c0.2-0.2,0.5-0.4,0.8-0.6s0.7-0.2,1.1-0.2
		c0.4,0,0.7,0.1,0.9,0.2c0.3,0.1,0.5,0.3,0.7,0.5c0.2,0.2,0.3,0.5,0.4,0.8c0.1,0.3,0.1,0.6,0.1,0.9c0,0.1,0,0.2,0,0.3
		c0,0.1,0,0.2,0,0.3H125.7z M128.2,112.4c0-0.2,0-0.4-0.1-0.5c-0.1-0.2-0.1-0.3-0.2-0.4c-0.1-0.1-0.2-0.2-0.4-0.3
		c-0.1-0.1-0.3-0.1-0.5-0.1c-0.4,0-0.7,0.1-0.9,0.4c-0.2,0.2-0.3,0.6-0.4,1H128.2z"/>
	<path class="st3" d="M130.5,108.1c0.1,0,0.2,0,0.2,0c0.1,0,0.2,0,0.2,0s0.2,0,0.2,0c0.1,0,0.2,0,0.2,0v2.8c0.1-0.2,0.3-0.4,0.6-0.5
		c0.3-0.1,0.6-0.2,0.9-0.2c0.3,0,0.6,0.1,0.8,0.2s0.5,0.3,0.7,0.5s0.3,0.5,0.4,0.8c0.1,0.3,0.2,0.7,0.2,1.1c0,0.9-0.2,1.6-0.7,2.1
		c-0.5,0.5-1.2,0.7-2.1,0.7c-0.3,0-0.6,0-0.9-0.1c-0.3-0.1-0.6-0.1-0.8-0.2V108.1z M131.5,114.6c0.1,0,0.2,0.1,0.4,0.1s0.3,0,0.4,0
		c0.2,0,0.5,0,0.7-0.1c0.2-0.1,0.4-0.2,0.5-0.4c0.2-0.2,0.3-0.4,0.4-0.6s0.1-0.5,0.1-0.9c0-0.6-0.1-1-0.3-1.3s-0.5-0.5-1-0.5
		c-0.2,0-0.3,0-0.5,0.1s-0.3,0.1-0.4,0.2c-0.1,0.1-0.2,0.3-0.3,0.4c-0.1,0.2-0.1,0.4-0.1,0.7V114.6z"/>
	<path class="st3" d="M136.2,115.4c0-0.1,0-0.2,0-0.3c0-0.1,0-0.2,0-0.3c0-0.1,0-0.2,0-0.3s0-0.2,0-0.3c0.1,0,0.2,0,0.3,0
		c0.1,0,0.2,0,0.3,0c0.1,0,0.2,0,0.3,0c0.1,0,0.2,0,0.3,0c0,0.1,0,0.2,0,0.3c0,0.1,0,0.2,0,0.3c0,0.1,0,0.2,0,0.3c0,0.1,0,0.2,0,0.3
		c-0.1,0-0.2,0-0.3,0c-0.1,0-0.2,0-0.3,0s-0.2,0-0.3,0C136.4,115.5,136.3,115.4,136.2,115.4z"/>
	<path class="st3" d="M142.2,114.5c0.1,0.1,0.1,0.2,0.1,0.3s0.1,0.3,0.1,0.4c-0.4,0.2-0.8,0.2-1.4,0.2c-0.9,0-1.5-0.2-1.9-0.7
		c-0.4-0.5-0.7-1.1-0.7-2c0-0.4,0.1-0.7,0.2-1.1c0.1-0.3,0.3-0.6,0.5-0.9s0.5-0.4,0.8-0.6c0.3-0.1,0.7-0.2,1.1-0.2
		c0.3,0,0.5,0,0.7,0.1c0.2,0,0.4,0.1,0.6,0.2c0,0.1,0,0.2,0,0.4s-0.1,0.3-0.1,0.4c-0.3-0.1-0.7-0.2-1.1-0.2c-0.5,0-0.9,0.2-1.2,0.5
		c-0.3,0.3-0.4,0.8-0.4,1.3c0,0.6,0.1,1.1,0.4,1.4c0.3,0.3,0.7,0.4,1.2,0.4c0.2,0,0.4,0,0.6,0S142,114.6,142.2,114.5z"/>
	<path class="st3" d="M145.5,115.6c-0.4,0-0.8-0.1-1-0.2s-0.5-0.3-0.8-0.6c-0.2-0.2-0.3-0.5-0.4-0.8c-0.1-0.3-0.1-0.7-0.1-1.1
		s0-0.7,0.1-1.1c0.1-0.3,0.2-0.6,0.4-0.9s0.5-0.4,0.8-0.6c0.3-0.1,0.7-0.2,1-0.2c0.4,0,0.8,0.1,1.1,0.2c0.3,0.1,0.5,0.3,0.8,0.6
		s0.3,0.5,0.4,0.9c0.1,0.3,0.1,0.7,0.1,1.1s0,0.7-0.1,1.1c-0.1,0.3-0.2,0.6-0.4,0.8c-0.2,0.2-0.5,0.4-0.8,0.6
		C146.2,115.5,145.9,115.6,145.5,115.6z M145.5,114.8c0.5,0,0.8-0.2,1-0.5c0.2-0.3,0.3-0.8,0.3-1.4c0-0.6-0.1-1.1-0.3-1.4
		s-0.6-0.5-1-0.5c-0.5,0-0.8,0.2-1,0.5s-0.3,0.8-0.3,1.4c0,0.6,0.1,1.1,0.3,1.4C144.7,114.6,145,114.8,145.5,114.8z"/>
	<path class="st3" d="M149.2,110.3c0.1,0,0.1,0,0.2,0c0.1,0,0.1,0,0.2,0c0.1,0,0.1,0,0.2,0c0.1,0,0.1,0,0.2,0c0,0.1,0,0.2,0.1,0.4
		c0,0.2,0,0.3,0,0.4c0.1-0.1,0.1-0.2,0.2-0.3c0.1-0.1,0.2-0.2,0.3-0.3c0.1-0.1,0.3-0.2,0.4-0.2c0.2-0.1,0.3-0.1,0.5-0.1
		c0.4,0,0.7,0.1,0.9,0.2c0.2,0.2,0.4,0.4,0.5,0.7c0.1-0.1,0.1-0.2,0.2-0.3s0.2-0.2,0.3-0.3c0.1-0.1,0.3-0.2,0.4-0.2
		c0.2-0.1,0.3-0.1,0.5-0.1c0.6,0,1,0.2,1.3,0.5c0.3,0.3,0.4,0.8,0.4,1.5v3.3c-0.1,0-0.2,0-0.2,0c-0.1,0-0.2,0-0.2,0s-0.2,0-0.2,0
		c-0.1,0-0.2,0-0.2,0v-3c0-0.5-0.1-0.8-0.2-1c-0.1-0.2-0.4-0.3-0.7-0.3c-0.3,0-0.6,0.1-0.8,0.4c-0.2,0.2-0.3,0.6-0.3,1.1v2.9
		c-0.1,0-0.2,0-0.2,0c-0.1,0-0.2,0-0.2,0s-0.2,0-0.2,0c-0.1,0-0.2,0-0.2,0v-3.1c0-0.4-0.1-0.8-0.2-1c-0.1-0.2-0.3-0.3-0.6-0.3
		c-0.2,0-0.3,0-0.5,0.1s-0.3,0.2-0.4,0.3c-0.1,0.1-0.2,0.3-0.3,0.6c-0.1,0.2-0.1,0.5-0.1,0.8v2.6c-0.1,0-0.2,0-0.2,0
		c-0.1,0-0.2,0-0.2,0s-0.2,0-0.2,0c-0.1,0-0.2,0-0.2,0V110.3z"/>
</g>
</svg>
