<svg id="Layer_1" data-name="Layer 1" xmlns="http://www.w3.org/2000/svg" viewBox="0 0 430.9 136.28"><defs><style>.cls-1{fill:#2bdd00;}.cls-2{fill:none;stroke:#2bdd00;stroke-width:23px;}.cls-3{fill:#fff;}</style></defs><title>National_FOSS_Month_logo</title><path class="cls-1" d="M70.71,65.9A19,19,0,1,0,45,83.71L31.35,117.6s8.17,3.89,21.17,3.89c11.69,0,18.18-3.52,18.18-3.52L58,83.86A19,19,0,0,0,70.71,65.9Z"/><polyline class="cls-2" points="123.26 136.28 123.26 11.5 0 11.5"/><path class="cls-3" d="M158.26,26.89h3l11.48,16.46h0.06V26.89h2.35V46.72h-3L160.67,30.25h-0.06V46.72h-2.35V26.89Z"/><path class="cls-3" d="M179.06,35.29a6.17,6.17,0,0,1,2.39-1.53,8.4,8.4,0,0,1,2.81-.49,5.55,5.55,0,0,1,4.2,1.37,5.91,5.91,0,0,1,1.29,4.17v5.63q0,0.56.06,1.16T190,46.72h-2.1a4.58,4.58,0,0,1-.13-1q0-.55,0-1h-0.06a5.13,5.13,0,0,1-1.72,1.65,5,5,0,0,1-2.59.64,6.86,6.86,0,0,1-1.89-.25,4.71,4.71,0,0,1-1.54-.74,3.66,3.66,0,0,1-1-1.22,3.48,3.48,0,0,1-.39-1.68,3.65,3.65,0,0,1,.84-2.55,5.1,5.1,0,0,1,2.09-1.37,10.26,10.26,0,0,1,2.69-.56q1.44-.11,2.65-0.11h0.84V38.18a2.68,2.68,0,0,0-.85-2.16,3.58,3.58,0,0,0-2.39-.73,6.41,6.41,0,0,0-2.09.35,5,5,0,0,0-1.81,1.08Zm6.33,5.12a7.84,7.84,0,0,0-3.33.59,2,2,0,0,0-1.23,1.93,1.9,1.9,0,0,0,.83,1.75,3.8,3.8,0,0,0,2.06.52,4,4,0,0,0,1.67-.32,3.5,3.5,0,0,0,1.19-.85,3.7,3.7,0,0,0,.73-1.25,5.1,5.1,0,0,0,.28-1.53V40.42h-2.18Z"/><path class="cls-3" d="M200.51,35.46h-3.86V42q0,0.64,0,1.19a2.46,2.46,0,0,0,.22,1,1.5,1.5,0,0,0,.59.64,2.17,2.17,0,0,0,1.12.24,4.51,4.51,0,0,0,1-.11,4.1,4.1,0,0,0,1-.34l0.08,2a5,5,0,0,1-1.25.36,8.15,8.15,0,0,1-1.3.11,4.73,4.73,0,0,1-1.88-.31,2.54,2.54,0,0,1-1.09-.87,3.23,3.23,0,0,1-.52-1.39,12.22,12.22,0,0,1-.13-1.83v-7.2h-2.86V33.61h2.86V29.89h2.18v3.72h3.86v1.85Z"/><path class="cls-3" d="M202.5,28.49a1.56,1.56,0,0,1,.46-1.12,1.59,1.59,0,0,1,2.27,0A1.61,1.61,0,1,1,202.5,28.49Zm0.5,5.12h2.18v13.1H203V33.61Z"/><path class="cls-3" d="M208.35,40.17a7.12,7.12,0,0,1,.53-2.8,6.61,6.61,0,0,1,1.46-2.17,6.47,6.47,0,0,1,2.21-1.41,8,8,0,0,1,5.6,0,6.48,6.48,0,0,1,2.21,1.41,6.64,6.64,0,0,1,1.46,2.17,7.64,7.64,0,0,1,0,5.6,6.63,6.63,0,0,1-1.46,2.17,6.47,6.47,0,0,1-2.21,1.41,8,8,0,0,1-5.6,0,6.46,6.46,0,0,1-2.21-1.41A6.61,6.61,0,0,1,208.88,43,7.12,7.12,0,0,1,208.35,40.17Zm2.35,0a5.55,5.55,0,0,0,.32,1.92,4.43,4.43,0,0,0,2.41,2.58,5.06,5.06,0,0,0,3.84,0,4.43,4.43,0,0,0,2.41-2.58,5.88,5.88,0,0,0,0-3.84,4.43,4.43,0,0,0-2.41-2.58,5.06,5.06,0,0,0-3.84,0A4.43,4.43,0,0,0,211,38.25,5.55,5.55,0,0,0,210.7,40.17Z"/><path class="cls-3" d="M225.32,36.72q0-.9-0.06-1.68c0-.52-0.06-1-0.06-1.43h2.07c0,0.35,0,.71,0,1.06s0,0.72,0,1.09h0.06a3.77,3.77,0,0,1,.63-0.92,4.55,4.55,0,0,1,1-.8,5.16,5.16,0,0,1,1.26-.56,5.24,5.24,0,0,1,1.51-.21,5.75,5.75,0,0,1,2.23.39,4.2,4.2,0,0,1,1.55,1.09,4.45,4.45,0,0,1,.91,1.69,7.65,7.65,0,0,1,.29,2.17v8.09h-2.18V38.85a4.18,4.18,0,0,0-.73-2.6,2.67,2.67,0,0,0-2.27-1,4.27,4.27,0,0,0-1.83.36,3.24,3.24,0,0,0-1.26,1,4.63,4.63,0,0,0-.73,1.6,8.22,8.22,0,0,0-.24,2v6.38h-2.18v-10Z"/><path class="cls-3" d="M240.3,35.29a6.16,6.16,0,0,1,2.39-1.53,8.4,8.4,0,0,1,2.81-.49,5.54,5.54,0,0,1,4.2,1.37A5.91,5.91,0,0,1,251,38.82v5.63q0,0.56.06,1.16t0.14,1.11h-2.1a4.52,4.52,0,0,1-.13-1q0-.55,0-1H248.9a5.13,5.13,0,0,1-1.72,1.65,5,5,0,0,1-2.59.64,6.86,6.86,0,0,1-1.89-.25,4.71,4.71,0,0,1-1.54-.74,3.65,3.65,0,0,1-1-1.22,3.48,3.48,0,0,1-.39-1.68,3.65,3.65,0,0,1,.84-2.55,5.09,5.09,0,0,1,2.09-1.37,10.27,10.27,0,0,1,2.69-.56q1.44-.11,2.65-0.11h0.84V38.18A2.68,2.68,0,0,0,248,36a3.58,3.58,0,0,0-2.39-.73,6.41,6.41,0,0,0-2.09.35,5,5,0,0,0-1.81,1.08Zm6.33,5.12a7.83,7.83,0,0,0-3.33.59,2,2,0,0,0-1.23,1.93,1.9,1.9,0,0,0,.83,1.75,3.81,3.81,0,0,0,2.06.52,4,4,0,0,0,1.67-.32A3.5,3.5,0,0,0,247.8,44a3.68,3.68,0,0,0,.73-1.25,5.08,5.08,0,0,0,.28-1.53V40.42h-2.18Z"/><path class="cls-3" d="M254.78,25.55H257V46.72h-2.18V25.55Z"/><path class="cls-3" d="M158.26,58.89h12.29v2.18h-9.94v6.55h9.24v2.18h-9.24v8.9h-2.35V58.89Z"/><path class="cls-3" d="M173,68.72q0-.9-0.06-1.68t-0.06-1.43H175q0,0.53,0,1.06t0,1.09h0.06a3.78,3.78,0,0,1,.63-0.92,4.53,4.53,0,0,1,1-.8,5.16,5.16,0,0,1,1.26-.56,5.23,5.23,0,0,1,1.51-.21l0.45,0a2,2,0,0,1,.45.11l-0.14,2.21a4.06,4.06,0,0,0-1.18-.17,3.32,3.32,0,0,0-2.93,1.3,6.14,6.14,0,0,0-.91,3.57v6.38H173v-10Z"/><path class="cls-3" d="M193.65,76.34a6.64,6.64,0,0,1-2.58,2.11,8.17,8.17,0,0,1-3.25.6,6.78,6.78,0,0,1-2.77-.54A6.25,6.25,0,0,1,183,77a6.43,6.43,0,0,1-1.32-2.18,7.76,7.76,0,0,1-.46-2.69,7.51,7.51,0,0,1,.5-2.79,6.46,6.46,0,0,1,1.4-2.18,6.29,6.29,0,0,1,2.13-1.41,7,7,0,0,1,2.69-.5,6.69,6.69,0,0,1,2.52.46,5.46,5.46,0,0,1,2,1.34,6,6,0,0,1,1.27,2.16,8.72,8.72,0,0,1,.45,2.9v0.7H183.55a4.58,4.58,0,0,0,.41,1.61,4.66,4.66,0,0,0,.91,1.34,4.22,4.22,0,0,0,1.32.91,4,4,0,0,0,1.65.34,5.22,5.22,0,0,0,2.41-.5A5.46,5.46,0,0,0,192,75ZM191.78,71a3.76,3.76,0,0,0-1.09-2.69,3.92,3.92,0,0,0-2.86-1,4,4,0,0,0-4.28,3.7h8.23Z"/><path class="cls-3" d="M208.8,76.34a6.64,6.64,0,0,1-2.58,2.11,8.17,8.17,0,0,1-3.25.6,6.78,6.78,0,0,1-2.77-.54A6.25,6.25,0,0,1,198.12,77a6.43,6.43,0,0,1-1.32-2.18,7.76,7.76,0,0,1-.46-2.69,7.51,7.51,0,0,1,.5-2.79,6.46,6.46,0,0,1,1.4-2.18,6.29,6.29,0,0,1,2.13-1.41,7,7,0,0,1,2.69-.5,6.69,6.69,0,0,1,2.52.46,5.46,5.46,0,0,1,2,1.34,6,6,0,0,1,1.27,2.16,8.72,8.72,0,0,1,.45,2.9v0.7H198.69a4.58,4.58,0,0,0,.41,1.61,4.66,4.66,0,0,0,.91,1.34,4.22,4.22,0,0,0,1.32.91A4,4,0,0,0,203,77a5.22,5.22,0,0,0,2.41-.5A5.46,5.46,0,0,0,207.15,75ZM206.93,71a3.76,3.76,0,0,0-1.09-2.69,3.92,3.92,0,0,0-2.86-1,4,4,0,0,0-4.28,3.7h8.23Z"/><path class="cls-3" d="M219.44,67.29a6.17,6.17,0,0,1,2.39-1.53,8.4,8.4,0,0,1,2.81-.49,5.55,5.55,0,0,1,4.2,1.37,5.91,5.91,0,0,1,1.29,4.17v5.63q0,0.56.06,1.16t0.14,1.11h-2.1a4.57,4.57,0,0,1-.12-1c0-.36,0-0.69,0-1H228a5.12,5.12,0,0,1-1.72,1.65,5,5,0,0,1-2.59.64,6.86,6.86,0,0,1-1.89-.25,4.69,4.69,0,0,1-1.54-.74,3.66,3.66,0,0,1-1-1.22,3.49,3.49,0,0,1-.39-1.68,3.65,3.65,0,0,1,.84-2.55,5.1,5.1,0,0,1,2.09-1.37,10.26,10.26,0,0,1,2.69-.56q1.44-.11,2.65-0.11H228V70.18A2.68,2.68,0,0,0,227.1,68a3.58,3.58,0,0,0-2.39-.73,6.41,6.41,0,0,0-2.09.35,5,5,0,0,0-1.81,1.08Zm6.33,5.12a7.83,7.83,0,0,0-3.33.59,2,2,0,0,0-1.23,1.93,1.9,1.9,0,0,0,.83,1.75,3.8,3.8,0,0,0,2.06.52,4,4,0,0,0,1.67-.32,3.5,3.5,0,0,0,1.19-.85,3.71,3.71,0,0,0,.73-1.25,5.11,5.11,0,0,0,.28-1.53V72.42h-2.18Z"/><path class="cls-3" d="M233.72,68.72q0-.9-0.05-1.68t-0.06-1.43h2.07q0,0.53,0,1.06c0,0.35,0,.72,0,1.09h0.06a3.77,3.77,0,0,1,.63-0.92,4.51,4.51,0,0,1,1-.8,5.16,5.16,0,0,1,1.26-.56,5.23,5.23,0,0,1,1.51-.21,5.75,5.75,0,0,1,2.22.39,4.18,4.18,0,0,1,1.55,1.09,4.44,4.44,0,0,1,.91,1.69,7.65,7.65,0,0,1,.29,2.17v8.09H243V70.85a4.19,4.19,0,0,0-.73-2.6,2.67,2.67,0,0,0-2.27-1,4.27,4.27,0,0,0-1.83.36,3.24,3.24,0,0,0-1.26,1,4.64,4.64,0,0,0-.73,1.6,8.17,8.17,0,0,0-.24,2v6.38h-2.18v-10Z"/><path class="cls-3" d="M259.76,76.39h-0.06a5,5,0,0,1-1.95,1.89,6.06,6.06,0,0,1-3.09.77,6.44,6.44,0,0,1-2.58-.52A6.3,6.3,0,0,1,250,77.09a6.77,6.77,0,0,1-1.39-2.18,7.72,7.72,0,0,1,0-5.49,6.63,6.63,0,0,1,1.4-2.18,6.27,6.27,0,0,1,2.17-1.44,7.41,7.41,0,0,1,2.81-.52,5.82,5.82,0,0,1,2.62.59,6.45,6.45,0,0,1,2.09,1.65h0.06v-10h2.18V78.72h-2.18V76.39Zm0-4.23a5.55,5.55,0,0,0-.32-1.92A4.42,4.42,0,0,0,257,67.67a5.06,5.06,0,0,0-3.84,0,4.42,4.42,0,0,0-2.41,2.58,5.87,5.87,0,0,0,0,3.84,4.42,4.42,0,0,0,2.41,2.58,5.06,5.06,0,0,0,3.84,0,4.42,4.42,0,0,0,2.41-2.58A5.56,5.56,0,0,0,259.76,72.17Z"/><path class="cls-3" d="M282.52,79.22a10.78,10.78,0,0,1-4.16-.78,10,10,0,0,1-3.28-2.17,9.75,9.75,0,0,1-2.16-3.3,11.62,11.62,0,0,1,0-8.32,9.76,9.76,0,0,1,2.16-3.3,10,10,0,0,1,3.28-2.17,11.42,11.42,0,0,1,8.32,0A10,10,0,0,1,290,61.34a9.76,9.76,0,0,1,2.16,3.3,11.6,11.6,0,0,1,0,8.32,9.75,9.75,0,0,1-2.16,3.3,10,10,0,0,1-3.28,2.17A10.77,10.77,0,0,1,282.52,79.22Zm0-2.18a7.7,7.7,0,0,0,3.18-.64,7.48,7.48,0,0,0,2.48-1.76A8.06,8.06,0,0,0,289.79,72a9.25,9.25,0,0,0,0-6.41A8.07,8.07,0,0,0,288.18,63a7.5,7.5,0,0,0-2.48-1.76,8.16,8.16,0,0,0-6.36,0A7.5,7.5,0,0,0,276.87,63a8,8,0,0,0-1.61,2.62,9.24,9.24,0,0,0,0,6.41,8,8,0,0,0,1.61,2.62,7.48,7.48,0,0,0,2.48,1.76A7.7,7.7,0,0,0,282.52,77Z"/><path class="cls-3" d="M295.74,65.61h2.18v1.9H298a6.43,6.43,0,0,1,2.09-1.65,5.83,5.83,0,0,1,2.62-.59,7.41,7.41,0,0,1,2.81.52,6.27,6.27,0,0,1,2.17,1.44,6.63,6.63,0,0,1,1.4,2.18,7.72,7.72,0,0,1,0,5.49,6.77,6.77,0,0,1-1.39,2.18,6.31,6.31,0,0,1-2.09,1.44,6.44,6.44,0,0,1-2.58.52,6.06,6.06,0,0,1-3.09-.77A5,5,0,0,1,298,76.39h-0.06V85.1h-2.18V65.61Zm2.18,6.55a5.56,5.56,0,0,0,.32,1.92,4.43,4.43,0,0,0,2.41,2.58,5.06,5.06,0,0,0,3.84,0,4.43,4.43,0,0,0,2.41-2.58,5.87,5.87,0,0,0,0-3.84,4.43,4.43,0,0,0-2.41-2.58,5.06,5.06,0,0,0-3.84,0,4.43,4.43,0,0,0-2.41,2.58A5.55,5.55,0,0,0,297.92,72.17Z"/><path class="cls-3" d="M324.25,76.34a6.65,6.65,0,0,1-2.58,2.11,8.17,8.17,0,0,1-3.25.6,6.78,6.78,0,0,1-2.77-.54A6.26,6.26,0,0,1,313.56,77a6.43,6.43,0,0,1-1.32-2.18,7.73,7.73,0,0,1-.46-2.69,7.51,7.51,0,0,1,.5-2.79,6.46,6.46,0,0,1,1.4-2.18,6.3,6.3,0,0,1,2.13-1.41,7,7,0,0,1,2.69-.5,6.69,6.69,0,0,1,2.52.46,5.46,5.46,0,0,1,2,1.34,6,6,0,0,1,1.27,2.16,8.7,8.7,0,0,1,.45,2.9v0.7H314.14a4.59,4.59,0,0,0,.41,1.61,4.66,4.66,0,0,0,.91,1.34,4.21,4.21,0,0,0,1.32.91,4,4,0,0,0,1.65.34,5.23,5.23,0,0,0,2.41-.5A5.46,5.46,0,0,0,322.59,75ZM322.37,71a3.77,3.77,0,0,0-1.09-2.69,3.92,3.92,0,0,0-2.86-1,4,4,0,0,0-4.28,3.7h8.23Z"/><path class="cls-3" d="M327.69,68.72q0-.9-0.06-1.68t-0.06-1.43h2.07q0,0.53,0,1.06t0,1.09h0.06a3.77,3.77,0,0,1,.63-0.92,4.51,4.51,0,0,1,1-.8,5.16,5.16,0,0,1,1.26-.56,5.23,5.23,0,0,1,1.51-.21,5.76,5.76,0,0,1,2.23.39,4.19,4.19,0,0,1,1.55,1.09,4.44,4.44,0,0,1,.91,1.69,7.62,7.62,0,0,1,.29,2.17v8.09h-2.18V70.85a4.19,4.19,0,0,0-.73-2.6,2.67,2.67,0,0,0-2.27-1,4.26,4.26,0,0,0-1.83.36,3.25,3.25,0,0,0-1.26,1,4.64,4.64,0,0,0-.73,1.6,8.17,8.17,0,0,0-.24,2v6.38h-2.18v-10Z"/><path class="cls-3" d="M360,62.39A3.46,3.46,0,0,0,358.43,61a5,5,0,0,0-2-.43,6.13,6.13,0,0,0-1.54.2,4.58,4.58,0,0,0-1.36.59,2.93,2.93,0,0,0-1,1,3,3,0,0,0-.36,1.51,3.13,3.13,0,0,0,.21,1.19,2.5,2.5,0,0,0,.69.94,5.1,5.1,0,0,0,1.29.78,17.77,17.77,0,0,0,2,.73q1.15,0.36,2.23.78a7.53,7.53,0,0,1,1.9,1.06A4.73,4.73,0,0,1,361.78,71a5.49,5.49,0,0,1-1.65,6.8,6.72,6.72,0,0,1-2.23,1.06,9.69,9.69,0,0,1-2.6.35,9.93,9.93,0,0,1-1.74-.15,8.38,8.38,0,0,1-1.67-.48,6.82,6.82,0,0,1-1.5-.84,5.05,5.05,0,0,1-1.2-1.28l2-1.65A4.14,4.14,0,0,0,353,76.48a5.47,5.47,0,0,0,4,.34,4.61,4.61,0,0,0,1.39-.66,3.56,3.56,0,0,0,1-1.08,2.79,2.79,0,0,0,.39-1.48,3.15,3.15,0,0,0-.31-1.5,2.75,2.75,0,0,0-1-1,7.33,7.33,0,0,0-1.62-.76l-2.3-.78a14.33,14.33,0,0,1-2-.77,6,6,0,0,1-1.55-1.06,4.55,4.55,0,0,1-1-1.51,5.35,5.35,0,0,1-.38-2.11,5.11,5.11,0,0,1,2.07-4.27,6.89,6.89,0,0,1,2.16-1.08,9.13,9.13,0,0,1,5.59.15,6,6,0,0,1,2.48,1.81Z"/><path class="cls-3" d="M364.59,72.17a7.13,7.13,0,0,1,.53-2.8,6.64,6.64,0,0,1,1.46-2.17,6.48,6.48,0,0,1,2.21-1.41,8,8,0,0,1,5.6,0,6.48,6.48,0,0,1,2.21,1.41,6.64,6.64,0,0,1,1.46,2.17,7.63,7.63,0,0,1,0,5.6,6.62,6.62,0,0,1-1.46,2.17,6.46,6.46,0,0,1-2.21,1.41,8,8,0,0,1-5.6,0,6.46,6.46,0,0,1-2.21-1.41A6.62,6.62,0,0,1,365.12,75,7.13,7.13,0,0,1,364.59,72.17Zm2.35,0a5.56,5.56,0,0,0,.32,1.92,4.42,4.42,0,0,0,2.41,2.58,5.06,5.06,0,0,0,3.84,0,4.43,4.43,0,0,0,2.41-2.58,5.87,5.87,0,0,0,0-3.84,4.42,4.42,0,0,0-2.41-2.58,5.06,5.06,0,0,0-3.84,0,4.42,4.42,0,0,0-2.41,2.58A5.55,5.55,0,0,0,366.94,72.17Z"/><path class="cls-3" d="M393,75.61q0,0.9.06,1.68t0.06,1.43H391c0-.35,0-0.71,0-1.06s0-.72,0-1.09h-0.06a3.77,3.77,0,0,1-.63.92,4.51,4.51,0,0,1-1,.8,5.17,5.17,0,0,1-1.26.56,5.25,5.25,0,0,1-1.51.21,5.76,5.76,0,0,1-2.23-.39,4.16,4.16,0,0,1-1.55-1.09,4.4,4.4,0,0,1-.91-1.69,7.61,7.61,0,0,1-.29-2.17V65.61h2.18v7.87a4.18,4.18,0,0,0,.73,2.6,2.67,2.67,0,0,0,2.27,1,4.27,4.27,0,0,0,1.83-.36,3.23,3.23,0,0,0,1.26-1,4.64,4.64,0,0,0,.73-1.6,8.21,8.21,0,0,0,.24-2V65.61H393v10Z"/><path class="cls-3" d="M396.71,68.72q0-.9-0.06-1.68t-0.06-1.43h2.07q0,0.53,0,1.06t0,1.09h0.06a3.77,3.77,0,0,1,.63-0.92,4.51,4.51,0,0,1,1-.8,5.16,5.16,0,0,1,1.26-.56,5.23,5.23,0,0,1,1.51-.21l0.45,0a2,2,0,0,1,.45.11l-0.14,2.21a4.06,4.06,0,0,0-1.18-.17,3.32,3.32,0,0,0-2.93,1.3,6.14,6.14,0,0,0-.91,3.57v6.38h-2.18v-10Z"/><path class="cls-3" d="M415,68.89a4.44,4.44,0,0,0-1.51-1.22,4.19,4.19,0,0,0-1.79-.38,4.66,4.66,0,0,0-1.93.38,3.72,3.72,0,0,0-1.39,1,4.69,4.69,0,0,0-.83,1.55,6.19,6.19,0,0,0-.28,1.89,5.46,5.46,0,0,0,.32,1.89,5,5,0,0,0,.9,1.55,4.05,4.05,0,0,0,1.39,1,4.26,4.26,0,0,0,1.82.38A3.87,3.87,0,0,0,415,75.41L416.62,77a5.69,5.69,0,0,1-2.24,1.6,7.72,7.72,0,0,1-5.49,0,6,6,0,0,1-2.14-1.43,6.58,6.58,0,0,1-1.37-2.18,7.59,7.59,0,0,1-.49-2.77,7.51,7.51,0,0,1,.49-2.74,6.46,6.46,0,0,1,1.39-2.18,6.32,6.32,0,0,1,2.14-1.44,7.12,7.12,0,0,1,2.76-.52,7.57,7.57,0,0,1,2.76.5,6,6,0,0,1,2.28,1.57Z"/><path class="cls-3" d="M430.42,76.34a6.65,6.65,0,0,1-2.58,2.11,8.17,8.17,0,0,1-3.25.6,6.78,6.78,0,0,1-2.77-.54A6.26,6.26,0,0,1,419.74,77a6.43,6.43,0,0,1-1.32-2.18,7.73,7.73,0,0,1-.46-2.69,7.51,7.51,0,0,1,.5-2.79,6.46,6.46,0,0,1,1.4-2.18A6.3,6.3,0,0,1,422,65.78a7,7,0,0,1,2.69-.5,6.69,6.69,0,0,1,2.52.46,5.46,5.46,0,0,1,2,1.34,6,6,0,0,1,1.27,2.16,8.7,8.7,0,0,1,.45,2.9v0.7H420.31a4.59,4.59,0,0,0,.41,1.61,4.66,4.66,0,0,0,.91,1.34,4.21,4.21,0,0,0,1.32.91,4,4,0,0,0,1.65.34,5.23,5.23,0,0,0,2.41-.5A5.46,5.46,0,0,0,428.77,75ZM428.54,71a3.77,3.77,0,0,0-1.09-2.69,3.92,3.92,0,0,0-2.86-1,4,4,0,0,0-4.28,3.7h8.23Z"/><path class="cls-3" d="M167.67,94.39A3.46,3.46,0,0,0,166.1,93a5,5,0,0,0-2-.43,6.1,6.1,0,0,0-1.54.2,4.56,4.56,0,0,0-1.36.59,2.94,2.94,0,0,0-1,1,3,3,0,0,0-.36,1.51A3.15,3.15,0,0,0,160,97.1a2.49,2.49,0,0,0,.69.94,5.09,5.09,0,0,0,1.29.78,17.62,17.62,0,0,0,2,.73q1.15,0.36,2.23.78a7.54,7.54,0,0,1,1.9,1.06,4.72,4.72,0,0,1,1.32,1.61,6.07,6.07,0,0,1-.1,5,5.38,5.38,0,0,1-1.55,1.8,6.71,6.71,0,0,1-2.23,1.06,9.68,9.68,0,0,1-2.6.35,9.92,9.92,0,0,1-1.74-.15,8.36,8.36,0,0,1-1.67-.48,6.78,6.78,0,0,1-1.5-.84,5.05,5.05,0,0,1-1.2-1.28l2-1.65a4.14,4.14,0,0,0,1.79,1.65,5.47,5.47,0,0,0,4,.34,4.63,4.63,0,0,0,1.39-.66,3.59,3.59,0,0,0,1-1.08,2.8,2.8,0,0,0,.39-1.48,3.16,3.16,0,0,0-.31-1.5,2.75,2.75,0,0,0-1-1,7.33,7.33,0,0,0-1.62-.76l-2.3-.78a14.38,14.38,0,0,1-2-.77,6,6,0,0,1-1.55-1.06,4.54,4.54,0,0,1-1-1.51,5.35,5.35,0,0,1-.38-2.11,5.1,5.1,0,0,1,2.07-4.27,6.86,6.86,0,0,1,2.16-1.08,9.12,9.12,0,0,1,5.59.15,6,6,0,0,1,2.48,1.81Z"/><path class="cls-3" d="M172.26,104.17a7.13,7.13,0,0,1,.53-2.8,6.62,6.62,0,0,1,1.46-2.17,6.47,6.47,0,0,1,2.21-1.41,8,8,0,0,1,5.6,0,6.48,6.48,0,0,1,2.21,1.41,6.64,6.64,0,0,1,1.46,2.17,7.64,7.64,0,0,1,0,5.6,6.62,6.62,0,0,1-1.46,2.17,6.46,6.46,0,0,1-2.21,1.41,8,8,0,0,1-5.6,0,6.45,6.45,0,0,1-2.21-1.41,6.6,6.6,0,0,1-1.46-2.17A7.12,7.12,0,0,1,172.26,104.17Zm2.35,0a5.56,5.56,0,0,0,.32,1.92,4.43,4.43,0,0,0,2.41,2.58,5.06,5.06,0,0,0,3.84,0,4.43,4.43,0,0,0,2.41-2.58,5.88,5.88,0,0,0,0-3.84,4.42,4.42,0,0,0-2.41-2.58,5,5,0,0,0-3.84,0,4.42,4.42,0,0,0-2.41,2.58A5.55,5.55,0,0,0,174.61,104.17Z"/><path class="cls-3" d="M190.35,99.46h-2.86V97.61h2.86V94.67a10,10,0,0,1,.22-2.2,4.46,4.46,0,0,1,.77-1.72,3.64,3.64,0,0,1,1.44-1.13,5.37,5.37,0,0,1,2.21-.41,5.2,5.2,0,0,1,.9.08,2.62,2.62,0,0,1,.78.25l-0.31,2a4.4,4.4,0,0,0-1.48-.28,2.5,2.5,0,0,0-1.32.29,1.82,1.82,0,0,0-.71.81,3.44,3.44,0,0,0-.28,1.25q0,0.73,0,1.57v2.46h3.19v1.85h-3.19v11.26h-2.18V99.46Z"/><path class="cls-3" d="M204.8,99.46h-3.86V106q0,0.64,0,1.19a2.46,2.46,0,0,0,.22,1,1.5,1.5,0,0,0,.59.64,2.17,2.17,0,0,0,1.12.24,4.54,4.54,0,0,0,1-.11,4.14,4.14,0,0,0,1-.34l0.08,2a5,5,0,0,1-1.25.36,8.14,8.14,0,0,1-1.3.11,4.72,4.72,0,0,1-1.88-.31,2.54,2.54,0,0,1-1.09-.87,3.22,3.22,0,0,1-.52-1.39,12.21,12.21,0,0,1-.13-1.83v-7.2h-2.86V97.61h2.86V93.89h2.18v3.72h3.86v1.85Z"/><path class="cls-3" d="M221.12,110.72H219l-3.72-10.08h-0.06l-3.3,10.08h-2.24l-4.26-13.1h2.41l3,10.08h0.06l3.39-10.08h2.3L220,107.69H220l3-10.08h2.35Z"/><path class="cls-3" d="M227.22,99.29a6.16,6.16,0,0,1,2.39-1.53,8.4,8.4,0,0,1,2.81-.49,5.55,5.55,0,0,1,4.2,1.37,5.92,5.92,0,0,1,1.29,4.17v5.63q0,0.56.06,1.16t0.14,1.11H236a4.57,4.57,0,0,1-.12-1c0-.36,0-0.69,0-1h-0.06a5.12,5.12,0,0,1-1.72,1.65,5,5,0,0,1-2.59.64,6.86,6.86,0,0,1-1.89-.25,4.69,4.69,0,0,1-1.54-.74,3.65,3.65,0,0,1-1-1.22,3.49,3.49,0,0,1-.39-1.68,3.65,3.65,0,0,1,.84-2.55,5.09,5.09,0,0,1,2.09-1.37,10.27,10.27,0,0,1,2.69-.56q1.44-.11,2.65-0.11h0.84v-0.39a2.68,2.68,0,0,0-.85-2.16,3.58,3.58,0,0,0-2.39-.73,6.42,6.42,0,0,0-2.09.35,5,5,0,0,0-1.81,1.08Zm6.33,5.13a7.83,7.83,0,0,0-3.33.59,2,2,0,0,0-1.23,1.93,1.9,1.9,0,0,0,.83,1.75,3.8,3.8,0,0,0,2.06.52,4,4,0,0,0,1.67-.32,3.5,3.5,0,0,0,1.19-.85,3.71,3.71,0,0,0,.73-1.25,5.11,5.11,0,0,0,.28-1.53v-0.84h-2.18Z"/><path class="cls-3" d="M241.5,100.72q0-.9-0.05-1.68t-0.06-1.43h2.07c0,0.36,0,.71,0,1.06s0,0.72,0,1.09h0.06a3.76,3.76,0,0,1,.63-0.92,4.52,4.52,0,0,1,1-.8,5.18,5.18,0,0,1,1.26-.56,5.24,5.24,0,0,1,1.51-.21l0.45,0a2,2,0,0,1,.45.11l-0.14,2.21a4.09,4.09,0,0,0-1.18-.17,3.32,3.32,0,0,0-2.93,1.3,6.14,6.14,0,0,0-.91,3.57v6.38H241.5v-10Z"/><path class="cls-3" d="M262.14,108.34a6.65,6.65,0,0,1-2.58,2.11,8.17,8.17,0,0,1-3.25.6,6.78,6.78,0,0,1-2.77-.54,6.26,6.26,0,0,1-2.09-1.47,6.43,6.43,0,0,1-1.32-2.18,7.73,7.73,0,0,1-.46-2.69,7.51,7.51,0,0,1,.5-2.79,6.46,6.46,0,0,1,1.4-2.18,6.3,6.3,0,0,1,2.13-1.41,7,7,0,0,1,2.69-.5,6.7,6.7,0,0,1,2.52.46,5.45,5.45,0,0,1,2,1.34,6.05,6.05,0,0,1,1.27,2.16,8.7,8.7,0,0,1,.45,2.9v0.7H252a4.59,4.59,0,0,0,.41,1.61,4.66,4.66,0,0,0,.91,1.34,4.21,4.21,0,0,0,1.32.91,4,4,0,0,0,1.65.34,5.23,5.23,0,0,0,2.41-.5,5.46,5.46,0,0,0,1.76-1.48ZM260.26,103a3.77,3.77,0,0,0-1.09-2.69,3.92,3.92,0,0,0-2.86-1A4,4,0,0,0,252,103h8.23Z"/><path class="cls-3" d="M273.37,90.89h3.5l6.72,15.54h0.06l6.78-15.54h3.42v19.82h-2.35V94.09h-0.06l-7.11,16.63h-1.43l-7.11-16.63h-0.06v16.63h-2.35V90.89Z"/><path class="cls-3" d="M297.2,104.17a7.13,7.13,0,0,1,.53-2.8,6.64,6.64,0,0,1,1.46-2.17,6.48,6.48,0,0,1,2.21-1.41,8,8,0,0,1,5.6,0,6.48,6.48,0,0,1,2.21,1.41,6.64,6.64,0,0,1,1.46,2.17,7.63,7.63,0,0,1,0,5.6,6.62,6.62,0,0,1-1.46,2.17,6.46,6.46,0,0,1-2.21,1.41,8,8,0,0,1-5.6,0,6.46,6.46,0,0,1-2.21-1.41,6.62,6.62,0,0,1-1.46-2.17A7.13,7.13,0,0,1,297.2,104.17Zm2.35,0a5.56,5.56,0,0,0,.32,1.92,4.42,4.42,0,0,0,2.41,2.58,5.06,5.06,0,0,0,3.84,0,4.43,4.43,0,0,0,2.41-2.58,5.87,5.87,0,0,0,0-3.84,4.42,4.42,0,0,0-2.41-2.58,5,5,0,0,0-3.84,0,4.42,4.42,0,0,0-2.41,2.58A5.55,5.55,0,0,0,299.55,104.17Z"/><path class="cls-3" d="M314.16,100.72q0-.9-0.06-1.68t-0.06-1.43h2.07c0,0.36,0,.71,0,1.06s0,0.72,0,1.09h0.06a3.76,3.76,0,0,1,.63-0.92,4.52,4.52,0,0,1,1-.8,5.18,5.18,0,0,1,1.26-.56,5.25,5.25,0,0,1,1.51-.21,5.75,5.75,0,0,1,2.23.39,4.19,4.19,0,0,1,1.55,1.09,4.44,4.44,0,0,1,.91,1.69,7.62,7.62,0,0,1,.29,2.17v8.09H323.4v-7.87a4.19,4.19,0,0,0-.73-2.6,2.68,2.68,0,0,0-2.27-1,4.26,4.26,0,0,0-1.83.36,3.26,3.26,0,0,0-1.26,1,4.64,4.64,0,0,0-.73,1.6,8.17,8.17,0,0,0-.24,2v6.38h-2.18v-10Z"/><path class="cls-3" d="M336.48,99.46h-3.86V106q0,0.64,0,1.19a2.46,2.46,0,0,0,.22,1,1.5,1.5,0,0,0,.59.64,2.17,2.17,0,0,0,1.12.24,4.54,4.54,0,0,0,1-.11,4.13,4.13,0,0,0,1-.34l0.08,2a5,5,0,0,1-1.25.36,8.15,8.15,0,0,1-1.3.11,4.72,4.72,0,0,1-1.88-.31,2.54,2.54,0,0,1-1.09-.87,3.22,3.22,0,0,1-.52-1.39,12.21,12.21,0,0,1-.13-1.83v-7.2h-2.86V97.61h2.86V93.89h2.18v3.72h3.86v1.85Z"/><path class="cls-3" d="M338.78,89.55H341v9.88H341a3.49,3.49,0,0,1,.62-0.77,4.67,4.67,0,0,1,.94-0.69,5.76,5.76,0,0,1,1.22-.5,5.1,5.1,0,0,1,1.43-.2,5.75,5.75,0,0,1,2.23.39A4.19,4.19,0,0,1,349,98.76a4.44,4.44,0,0,1,.91,1.69,7.62,7.62,0,0,1,.29,2.17v8.09H348v-7.87a4.19,4.19,0,0,0-.73-2.6,2.68,2.68,0,0,0-2.27-1,4.26,4.26,0,0,0-1.83.36,3.26,3.26,0,0,0-1.26,1,4.64,4.64,0,0,0-.73,1.6,8.17,8.17,0,0,0-.24,2v6.38h-2.18V89.55Z"/></svg>